<mxfile host="app.diagrams.net" modified="2021-08-17T18:56:36.068Z" agent="5.0 (Windows NT 10.0; Win64; x64) AppleWebKit/537.36 (KHTML, like Gecko) Chrome/92.0.4515.131 Safari/537.36" etag="3Lo5nTl_HbmbVlNJcfCy" version="14.9.3" type="github">
  <diagram id="bLgOnwTtSH5vmQakjvW5" name="Page-1">
    <mxGraphModel dx="1038" dy="546" grid="1" gridSize="10" guides="1" tooltips="1" connect="1" arrows="1" fold="1" page="1" pageScale="1" pageWidth="827" pageHeight="1169" math="0" shadow="0">
      <root>
        <mxCell id="0" />
        <mxCell id="1" parent="0" />
        <mxCell id="f3eKL93aPQFXG__tUR0J-1" value="Master branch" style="whiteSpace=wrap;html=1;aspect=fixed;fillColor=#FF3399;" vertex="1" parent="1">
          <mxGeometry x="360" y="220" width="80" height="80" as="geometry" />
        </mxCell>
        <mxCell id="f3eKL93aPQFXG__tUR0J-3" value="Dem" style="shape=umlActor;verticalLabelPosition=bottom;verticalAlign=top;html=1;outlineConnect=0;" vertex="1" parent="1">
          <mxGeometry x="640" y="360" width="30" height="60" as="geometry" />
        </mxCell>
        <mxCell id="f3eKL93aPQFXG__tUR0J-4" value="Geoffroy" style="shape=umlActor;verticalLabelPosition=bottom;verticalAlign=top;html=1;outlineConnect=0;" vertex="1" parent="1">
          <mxGeometry x="100" y="60" width="30" height="80" as="geometry" />
        </mxCell>
        <mxCell id="f3eKL93aPQFXG__tUR0J-12" value="Jean" style="shape=umlActor;verticalLabelPosition=bottom;verticalAlign=top;html=1;outlineConnect=0;" vertex="1" parent="1">
          <mxGeometry x="640" y="60" width="30" height="80" as="geometry" />
        </mxCell>
        <mxCell id="f3eKL93aPQFXG__tUR0J-13" value="Geoffroy" style="shape=umlActor;verticalLabelPosition=bottom;verticalAlign=top;html=1;outlineConnect=0;" vertex="1" parent="1">
          <mxGeometry x="110" y="360" width="30" height="80" as="geometry" />
        </mxCell>
        <mxCell id="f3eKL93aPQFXG__tUR0J-14" value="branch" style="html=1;whiteSpace=wrap;aspect=fixed;shape=isoRectangle;fillColor=#33FFFF;" vertex="1" parent="1">
          <mxGeometry x="170" y="170" width="100" height="60" as="geometry" />
        </mxCell>
        <mxCell id="f3eKL93aPQFXG__tUR0J-17" value="git push" style="endArrow=classic;html=1;entryX=0.284;entryY=0.233;entryDx=0;entryDy=0;entryPerimeter=0;exitX=0.5;exitY=0.5;exitDx=0;exitDy=0;exitPerimeter=0;" edge="1" parent="1" source="f3eKL93aPQFXG__tUR0J-4" target="f3eKL93aPQFXG__tUR0J-14">
          <mxGeometry width="50" height="50" relative="1" as="geometry">
            <mxPoint x="150" y="110" as="sourcePoint" />
            <mxPoint x="210" y="120" as="targetPoint" />
          </mxGeometry>
        </mxCell>
        <mxCell id="f3eKL93aPQFXG__tUR0J-18" value="branch" style="html=1;whiteSpace=wrap;aspect=fixed;shape=isoRectangle;fillColor=#33FFFF;" vertex="1" parent="1">
          <mxGeometry x="170" y="250" width="100" height="60" as="geometry" />
        </mxCell>
        <mxCell id="f3eKL93aPQFXG__tUR0J-19" value="git push" style="endArrow=classic;html=1;entryX=0.28;entryY=0.887;entryDx=0;entryDy=0;entryPerimeter=0;exitX=0.747;exitY=0.805;exitDx=0;exitDy=0;exitPerimeter=0;" edge="1" parent="1" source="f3eKL93aPQFXG__tUR0J-13" target="f3eKL93aPQFXG__tUR0J-18">
          <mxGeometry width="50" height="50" relative="1" as="geometry">
            <mxPoint x="140" y="400" as="sourcePoint" />
            <mxPoint x="190" y="350" as="targetPoint" />
          </mxGeometry>
        </mxCell>
        <mxCell id="f3eKL93aPQFXG__tUR0J-22" value="branch" style="html=1;whiteSpace=wrap;aspect=fixed;shape=isoRectangle;strokeColor=#33FFFF;fillColor=#66FFFF;" vertex="1" parent="1">
          <mxGeometry x="520" y="170" width="100" height="60" as="geometry" />
        </mxCell>
        <mxCell id="f3eKL93aPQFXG__tUR0J-23" value="branch" style="html=1;whiteSpace=wrap;aspect=fixed;shape=isoRectangle;fillColor=#33FFFF;" vertex="1" parent="1">
          <mxGeometry x="520" y="250" width="100" height="60" as="geometry" />
        </mxCell>
        <mxCell id="f3eKL93aPQFXG__tUR0J-25" value="git push" style="endArrow=classic;html=1;entryX=0.72;entryY=0.093;entryDx=0;entryDy=0;entryPerimeter=0;" edge="1" parent="1" target="f3eKL93aPQFXG__tUR0J-22">
          <mxGeometry width="50" height="50" relative="1" as="geometry">
            <mxPoint x="650" y="100" as="sourcePoint" />
            <mxPoint x="733.4000000000001" y="183.98000000000002" as="targetPoint" />
          </mxGeometry>
        </mxCell>
        <mxCell id="f3eKL93aPQFXG__tUR0J-27" value="git push" style="endArrow=classic;html=1;entryX=0.72;entryY=0.86;entryDx=0;entryDy=0;entryPerimeter=0;" edge="1" parent="1" target="f3eKL93aPQFXG__tUR0J-23">
          <mxGeometry width="50" height="50" relative="1" as="geometry">
            <mxPoint x="658" y="390" as="sourcePoint" />
            <mxPoint x="600" y="465.58000000000004" as="targetPoint" />
          </mxGeometry>
        </mxCell>
        <mxCell id="f3eKL93aPQFXG__tUR0J-28" value="fusion and merge" style="endArrow=classic;html=1;entryX=1.024;entryY=0.507;entryDx=0;entryDy=0;entryPerimeter=0;" edge="1" parent="1" source="f3eKL93aPQFXG__tUR0J-1" target="f3eKL93aPQFXG__tUR0J-14">
          <mxGeometry width="50" height="50" relative="1" as="geometry">
            <mxPoint x="389" y="220" as="sourcePoint" />
            <mxPoint x="439" y="170" as="targetPoint" />
          </mxGeometry>
        </mxCell>
        <mxCell id="f3eKL93aPQFXG__tUR0J-30" value="fusion and merge" style="endArrow=classic;html=1;entryX=1;entryY=0.5;entryDx=0;entryDy=0;entryPerimeter=0;exitX=0;exitY=0.36;exitDx=0;exitDy=0;exitPerimeter=0;" edge="1" parent="1" source="f3eKL93aPQFXG__tUR0J-1" target="f3eKL93aPQFXG__tUR0J-18">
          <mxGeometry width="50" height="50" relative="1" as="geometry">
            <mxPoint x="350" y="290" as="sourcePoint" />
            <mxPoint x="400" y="240" as="targetPoint" />
          </mxGeometry>
        </mxCell>
        <mxCell id="f3eKL93aPQFXG__tUR0J-31" value="fusion and merge" style="endArrow=classic;html=1;entryX=0.168;entryY=0.627;entryDx=0;entryDy=0;entryPerimeter=0;" edge="1" parent="1" target="f3eKL93aPQFXG__tUR0J-22">
          <mxGeometry width="50" height="50" relative="1" as="geometry">
            <mxPoint x="440" y="250" as="sourcePoint" />
            <mxPoint x="490" y="200" as="targetPoint" />
          </mxGeometry>
        </mxCell>
        <mxCell id="f3eKL93aPQFXG__tUR0J-32" value="fusion and merge" style="endArrow=classic;html=1;entryX=0.352;entryY=0.893;entryDx=0;entryDy=0;entryPerimeter=0;" edge="1" parent="1" target="f3eKL93aPQFXG__tUR0J-23">
          <mxGeometry width="50" height="50" relative="1" as="geometry">
            <mxPoint x="440" y="250" as="sourcePoint" />
            <mxPoint x="490" y="200" as="targetPoint" />
          </mxGeometry>
        </mxCell>
        <mxCell id="f3eKL93aPQFXG__tUR0J-33" value="Dépot&lt;br&gt;&lt;br&gt;git add .&lt;br&gt;git commit -m &#39;message&#39;" style="rounded=0;whiteSpace=wrap;html=1;strokeColor=#33FFFF;fillColor=#FFFFFF;" vertex="1" parent="1">
          <mxGeometry x="320" y="20" width="120" height="80" as="geometry" />
        </mxCell>
        <mxCell id="f3eKL93aPQFXG__tUR0J-34" value="Mise à jour&lt;br&gt;git fetch origin master&lt;br&gt;git merge origin branch&lt;br&gt;ou&lt;br&gt;git pull origin branch" style="rounded=0;whiteSpace=wrap;html=1;strokeColor=#33FFFF;fillColor=#FFFFFF;" vertex="1" parent="1">
          <mxGeometry x="290" y="430" width="140" height="90" as="geometry" />
        </mxCell>
      </root>
    </mxGraphModel>
  </diagram>
</mxfile>
